<?xml version="1.0" encoding="UTF-8" standalone="no"?>
<!-- Created with Inkscape (http://www.inkscape.org/) -->

<svg
   width="1280"
   height="640"
   viewBox="0 0 338.66666 169.33333"
   version="1.1"
   id="svg1"
   xml:space="preserve"
   inkscape:version="1.4.4 (dcaf3e7d9e, 2026-05-05)"
   sodipodi:docname="OzoneShellBig.svg"
   xmlns:inkscape="http://www.inkscape.org/namespaces/inkscape"
   xmlns:sodipodi="http://sodipodi.sourceforge.net/DTD/sodipodi-0.dtd"
   xmlns="http://www.w3.org/2000/svg"
   xmlns:svg="http://www.w3.org/2000/svg"><sodipodi:namedview
     id="namedview1"
     pagecolor="#ffffff"
     bordercolor="#000000"
     borderopacity="0.25"
     inkscape:showpageshadow="2"
     inkscape:pageopacity="0.0"
     inkscape:pagecheckerboard="0"
     inkscape:deskcolor="#d1d1d1"
     inkscape:document-units="px"
     showguides="false"
     inkscape:zoom="0.85170635"
     inkscape:cx="658.09067"
     inkscape:cy="331.10003"
     inkscape:window-width="1872"
     inkscape:window-height="992"
     inkscape:window-x="0"
     inkscape:window-y="0"
     inkscape:window-maximized="1"
     inkscape:current-layer="svg1" /><defs
     id="defs1"><rect
       x="91.58086"
       y="250.0862"
       width="538.91814"
       height="209.1003"
       id="rect3" /><rect
       x="58.70568"
       y="250.0862"
       width="460.25253"
       height="190.2064"
       id="rect2" /><rect
       x="91.580856"
       y="250.0862"
       width="501.34649"
       height="265.34968"
       id="rect3-6" /></defs><rect
     style="fill:#ffffff;fill-opacity:1;stroke-width:2.64583;stroke-linecap:round;stroke-linejoin:round"
     id="rect4"
     width="338.66666"
     height="169.33333"
     x="0"
     y="0" /><g
     inkscape:groupmode="layer"
     id="layer1"
     inkscape:label="Layer 1"><g
       inkscape:label="Layer 1"
       id="layer1-6"
       transform="matrix(0.26458333,0,0,0.26458333,113.50625,16.933333)"><path
         id="path37"
         style="baseline-shift:baseline;display:inline;overflow:visible;opacity:1;vector-effect:none;stroke-linecap:round;stroke-linejoin:round;stroke-dasharray:5, 15;enable-background:accumulate;stop-color:#000000;stop-opacity:1"
         d="m 254.38867,292.61133 a 5,5 0 0 0 -3.53515,1.46484 l -3.53711,3.53516 a 5,5 0 0 0 0,7.07226 5,5 0 0 0 7.07226,0 l 3.53516,-3.53711 a 5,5 0 0 0 0,-7.07031 5,5 0 0 0 -3.53516,-1.46484 z m -14.14258,14.14258 a 5,5 0 0 0 -3.53515,1.46484 l -3.53516,3.53516 a 5,5 0 0 0 0,7.07031 5,5 0 0 0 7.07031,0 l 3.53516,-3.53516 a 5,5 0 0 0 0,-7.07031 5,5 0 0 0 -3.53516,-1.46484 z m -14.14257,14.14257 a 5,5 0 0 0 -3.53516,1.46485 l -3.53516,3.53515 a 5,5 0 0 0 0,7.07032 5,5 0 0 0 7.07032,0 l 3.53515,-3.53516 a 5,5 0 0 0 0,-7.07031 5,5 0 0 0 -3.53515,-1.46485 z m -14.14063,14.14063 a 5,5 0 0 0 -3.53711,1.46484 l -2.96289,2.96289 A 40,40 0 0 1 206,346 a 40,40 0 0 1 -0.0469,1.91992 5,5 0 0 0 6.00977,-0.81054 l 3.53516,-3.53516 a 5,5 0 0 0 0,-7.07227 5,5 0 0 0 -3.53516,-1.46484 z m -38.2793,50.21875 A 40,40 0 0 1 166,386 a 40,40 0 0 1 -4.99023,-0.3125 5,5 0 0 0 1.45507,3.84766 5,5 0 0 0 7.07032,0 L 173.07031,386 a 5,5 0 0 0 0.61328,-0.74414 z" /><path
         id="path34"
         style="baseline-shift:baseline;display:inline;overflow:visible;opacity:1;vector-effect:none;stroke-linecap:round;stroke-linejoin:round;enable-background:accumulate;stop-color:#000000;stop-opacity:1"
         d="m 256,251 a 5,5 0 0 0 -3.53516,1.46484 l -61.9375,61.9375 a 40,40 0 0 1 7.07032,7.07032 l 61.9375,-61.9375 a 5,5 0 0 0 0,-7.07032 A 5,5 0 0 0 256,251 Z" /><path
         id="path36"
         style="baseline-shift:baseline;display:inline;overflow:visible;opacity:1;vector-effect:none;stroke-linecap:round;stroke-linejoin:round;stroke-dasharray:5, 15;enable-background:accumulate;stop-color:#000000;stop-opacity:1"
         d="m 166,121 a 5,5 0 0 0 -3.53516,1.46484 5,5 0 0 0 -1.45507,3.84766 A 40,40 0 0 1 166,126 40,40 0 0 1 173.68359,126.74414 5,5 0 0 0 173.07031,126 l -3.53515,-3.53516 A 5,5 0 0 0 166,121 Z m 42.42578,42.42578 a 5,5 0 0 0 -2.47266,0.6543 A 40,40 0 0 1 206,166 a 40,40 0 0 1 -0.53711,6.53516 l 2.96289,2.96289 a 5,5 0 0 0 7.07227,0 5,5 0 0 0 0,-7.07227 l -3.53516,-3.53516 a 5,5 0 0 0 -3.53711,-1.46484 z m 14.14258,14.14258 a 5,5 0 0 0 -3.53516,1.46484 5,5 0 0 0 0,7.07032 l 3.53516,3.53515 a 5,5 0 0 0 7.07031,0 5,5 0 0 0 0,-7.07031 l -3.53515,-3.53516 a 5,5 0 0 0 -3.53516,-1.46484 z m 14.14258,14.14258 a 5,5 0 0 0 -3.53516,1.46484 5,5 0 0 0 0,7.07031 l 3.53516,3.53516 a 5,5 0 0 0 7.07031,0 5,5 0 0 0 0,-7.07031 l -3.53516,-3.53516 a 5,5 0 0 0 -3.53515,-1.46484 z m 14.14258,14.14258 a 5,5 0 0 0 -3.53711,1.46289 5,5 0 0 0 0,7.07226 l 3.53711,3.53516 a 5,5 0 0 0 7.07031,0 5,5 0 0 0 0,-7.07031 l -3.53516,-3.53711 a 5,5 0 0 0 -3.53515,-1.46289 z" /><path
         id="path35"
         style="baseline-shift:baseline;display:inline;overflow:visible;opacity:1;vector-effect:none;stroke-linecap:round;stroke-linejoin:round;enable-background:accumulate;stop-color:#000000;stop-opacity:1"
         d="m 197.59766,190.52734 a 40,40 0 0 1 -7.07032,7.07032 l 61.9375,61.9375 a 5,5 0 0 0 7.07032,0 5,5 0 0 0 0,-7.07032 z" /><circle
         style="fill:none;fill-opacity:1;stroke:#000000;stroke-width:10;stroke-linecap:round;stroke-linejoin:round;stroke-dasharray:none;stroke-opacity:1"
         id="path31"
         cx="256"
         cy="256"
         r="40" /><circle
         style="fill:none;fill-opacity:1;stroke:#000000;stroke-width:10;stroke-linecap:round;stroke-linejoin:round;stroke-dasharray:none;stroke-opacity:1"
         id="circle31"
         cx="166"
         cy="166"
         r="40" /><circle
         style="fill:none;fill-opacity:1;stroke:#000000;stroke-width:10;stroke-linecap:round;stroke-linejoin:round;stroke-dasharray:none;stroke-opacity:1"
         id="circle32"
         cx="166"
         cy="346"
         r="40" /></g><text
       xml:space="preserve"
       transform="matrix(0.26458333,0,0,0.26458333,-16.822218,-3.9173919)"
       id="text3"
       style="font-style:normal;font-variant:normal;font-weight:900;font-stretch:expanded;font-size:160px;font-family:Iosevka;-inkscape-font-specification:'Iosevka Heavy Expanded';writing-mode:lr-tb;direction:ltr;white-space:pre;shape-inside:url(#rect3);display:inline;fill:#000000;fill-opacity:1;stroke-width:10;stroke-linecap:round;stroke-linejoin:round"><tspan
         x="91.580078"
         y="393.60594"
         id="tspan2">OZONE</tspan></text><text
       xml:space="preserve"
       transform="matrix(0.26458333,0,0,0.26458333,172.60762,-3.9173919)"
       id="text3-7"
       style="font-style:normal;font-variant:normal;font-weight:900;font-stretch:expanded;font-size:160px;font-family:Iosevka;-inkscape-font-specification:'Iosevka Heavy Expanded';writing-mode:lr-tb;direction:ltr;white-space:pre;shape-inside:url(#rect3-6);display:inline;fill:#000000;fill-opacity:1;stroke-width:10;stroke-linecap:round;stroke-linejoin:round"><tspan
         x="91.580078"
         y="393.60594"
         id="tspan3">SHELL</tspan></text></g></svg>
