<?xml version="1.0" encoding="UTF-8" standalone="no"?>
<!-- Created with Inkscape (http://www.inkscape.org/) -->

<svg
   width="512"
   height="512"
   viewBox="0 0 512 512"
   version="1.1"
   id="svg1"
   inkscape:version="1.4.4 (dcaf3e7d9e, 2026-05-05)"
   sodipodi:docname="OzoneShell.svg"
   inkscape:export-filename="OzoneShellWhiteBG.png"
   inkscape:export-xdpi="300"
   inkscape:export-ydpi="300"
   xmlns:inkscape="http://www.inkscape.org/namespaces/inkscape"
   xmlns:sodipodi="http://sodipodi.sourceforge.net/DTD/sodipodi-0.dtd"
   xmlns="http://www.w3.org/2000/svg"
   xmlns:svg="http://www.w3.org/2000/svg">
  <sodipodi:namedview
     id="namedview1"
     pagecolor="#ffffff"
     bordercolor="#000000"
     borderopacity="0.25"
     inkscape:showpageshadow="2"
     inkscape:pageopacity="0.0"
     inkscape:pagecheckerboard="0"
     inkscape:deskcolor="#d1d1d1"
     inkscape:document-units="px"
     inkscape:zoom="2.3261719"
     inkscape:cx="190.87154"
     inkscape:cy="273.41058"
     inkscape:window-width="1237"
     inkscape:window-height="992"
     inkscape:window-x="0"
     inkscape:window-y="0"
     inkscape:window-maximized="1"
     inkscape:current-layer="layer1"
     inkscape:export-bgcolor="#ffffffff" />
  <defs
     id="defs1" />
  <g
     inkscape:label="Layer 1"
     inkscape:groupmode="layer"
     id="layer1"
     transform="translate(45)">
    <path
       id="path37"
       style="baseline-shift:baseline;display:inline;overflow:visible;vector-effect:none;stroke-linecap:round;stroke-linejoin:round;stroke-dasharray:5, 15;enable-background:accumulate;stop-color:#000000;stop-opacity:1;opacity:1"
       d="M 254.38867 292.61133 A 5 5 0 0 0 250.85352 294.07617 L 247.31641 297.61133 A 5 5 0 0 0 247.31641 304.68359 A 5 5 0 0 0 254.38867 304.68359 L 257.92383 301.14648 A 5 5 0 0 0 257.92383 294.07617 A 5 5 0 0 0 254.38867 292.61133 z M 240.24609 306.75391 A 5 5 0 0 0 236.71094 308.21875 L 233.17578 311.75391 A 5 5 0 0 0 233.17578 318.82422 A 5 5 0 0 0 240.24609 318.82422 L 243.78125 315.28906 A 5 5 0 0 0 243.78125 308.21875 A 5 5 0 0 0 240.24609 306.75391 z M 226.10352 320.89648 A 5 5 0 0 0 222.56836 322.36133 L 219.0332 325.89648 A 5 5 0 0 0 219.0332 332.9668 A 5 5 0 0 0 226.10352 332.9668 L 229.63867 329.43164 A 5 5 0 0 0 229.63867 322.36133 A 5 5 0 0 0 226.10352 320.89648 z M 211.96289 335.03711 A 5 5 0 0 0 208.42578 336.50195 L 205.46289 339.46484 A 40 40 0 0 1 206 346 A 40 40 0 0 1 205.95312 347.91992 A 5 5 0 0 0 211.96289 347.10938 L 215.49805 343.57422 A 5 5 0 0 0 215.49805 336.50195 A 5 5 0 0 0 211.96289 335.03711 z M 173.68359 385.25586 A 40 40 0 0 1 166 386 A 40 40 0 0 1 161.00977 385.6875 A 5 5 0 0 0 162.46484 389.53516 A 5 5 0 0 0 169.53516 389.53516 L 173.07031 386 A 5 5 0 0 0 173.68359 385.25586 z " />
    <path
       id="path34"
       style="baseline-shift:baseline;display:inline;overflow:visible;vector-effect:none;stroke-linecap:round;stroke-linejoin:round;enable-background:accumulate;stop-color:#000000;stop-opacity:1;opacity:1"
       d="M 256 251 A 5 5 0 0 0 252.46484 252.46484 L 190.52734 314.40234 A 40 40 0 0 1 197.59766 321.47266 L 259.53516 259.53516 A 5 5 0 0 0 259.53516 252.46484 A 5 5 0 0 0 256 251 z " />
    <path
       id="path36"
       style="baseline-shift:baseline;display:inline;overflow:visible;vector-effect:none;stroke-linecap:round;stroke-linejoin:round;stroke-dasharray:5, 15;enable-background:accumulate;stop-color:#000000;stop-opacity:1;opacity:1"
       d="M 166 121 A 5 5 0 0 0 162.46484 122.46484 A 5 5 0 0 0 161.00977 126.3125 A 40 40 0 0 1 166 126 A 40 40 0 0 1 173.68359 126.74414 A 5 5 0 0 0 173.07031 126 L 169.53516 122.46484 A 5 5 0 0 0 166 121 z M 208.42578 163.42578 A 5 5 0 0 0 205.95312 164.08008 A 40 40 0 0 1 206 166 A 40 40 0 0 1 205.46289 172.53516 L 208.42578 175.49805 A 5 5 0 0 0 215.49805 175.49805 A 5 5 0 0 0 215.49805 168.42578 L 211.96289 164.89062 A 5 5 0 0 0 208.42578 163.42578 z M 222.56836 177.56836 A 5 5 0 0 0 219.0332 179.0332 A 5 5 0 0 0 219.0332 186.10352 L 222.56836 189.63867 A 5 5 0 0 0 229.63867 189.63867 A 5 5 0 0 0 229.63867 182.56836 L 226.10352 179.0332 A 5 5 0 0 0 222.56836 177.56836 z M 236.71094 191.71094 A 5 5 0 0 0 233.17578 193.17578 A 5 5 0 0 0 233.17578 200.24609 L 236.71094 203.78125 A 5 5 0 0 0 243.78125 203.78125 A 5 5 0 0 0 243.78125 196.71094 L 240.24609 193.17578 A 5 5 0 0 0 236.71094 191.71094 z M 250.85352 205.85352 A 5 5 0 0 0 247.31641 207.31641 A 5 5 0 0 0 247.31641 214.38867 L 250.85352 217.92383 A 5 5 0 0 0 257.92383 217.92383 A 5 5 0 0 0 257.92383 210.85352 L 254.38867 207.31641 A 5 5 0 0 0 250.85352 205.85352 z " />
    <path
       id="path35"
       style="baseline-shift:baseline;display:inline;overflow:visible;vector-effect:none;stroke-linecap:round;stroke-linejoin:round;enable-background:accumulate;stop-color:#000000;stop-opacity:1;opacity:1"
       d="M 197.59766 190.52734 A 40 40 0 0 1 190.52734 197.59766 L 252.46484 259.53516 A 5 5 0 0 0 259.53516 259.53516 A 5 5 0 0 0 259.53516 252.46484 L 197.59766 190.52734 z " />
    <circle
       style="fill:none;fill-opacity:1;stroke:#000000;stroke-width:10;stroke-linecap:round;stroke-linejoin:round;stroke-dasharray:none;stroke-opacity:1"
       id="path31"
       cx="256"
       cy="256"
       r="40" />
    <circle
       style="fill:none;fill-opacity:1;stroke:#000000;stroke-width:10;stroke-linecap:round;stroke-linejoin:round;stroke-dasharray:none;stroke-opacity:1"
       id="circle31"
       cx="166"
       cy="166"
       r="40" />
    <circle
       style="fill:none;fill-opacity:1;stroke:#000000;stroke-width:10;stroke-linecap:round;stroke-linejoin:round;stroke-dasharray:none;stroke-opacity:1"
       id="circle32"
       cx="166"
       cy="346"
       r="40" />
  </g>
</svg>
